<svg width="9" height="6" viewBox="0 0 9 6" fill="none" xmlns="http://www.w3.org/2000/svg">
<path d="M5.07836 4.72045L5.07839 4.72042L8.64766 1.14956C8.64768 1.14955 8.64769 1.14954 8.6477 1.14953C8.72623 1.07098 8.7697 0.96469 8.7697 0.857437C8.7697 0.75413 8.73046 0.645741 8.64633 0.56398C8.48406 0.403143 8.2236 0.403576 8.06186 0.565279C8.06185 0.56529 8.06184 0.565301 8.06183 0.565312L4.78468 3.84094L1.50747 0.563726C1.34529 0.401545 1.08382 0.401545 0.921636 0.563726C0.759454 0.725908 0.759454 0.987381 0.921636 1.14956L4.49253 4.72045C4.65471 4.88264 4.91618 4.88264 5.07836 4.72045Z" fill="white" stroke="white" stroke-width="0.4"/>
</svg>
