<svg width="37" height="37" viewBox="0 0 37 37" fill="none" xmlns="http://www.w3.org/2000/svg">
<path d="M9.90429 26.1439L9.90469 26.1439L11.1071 12.6037C11.1071 12.6037 11.1071 12.6036 11.1071 12.6035L11.1071 12.6034L11.2067 12.6123C11.2325 12.3117 11.4816 12.084 11.7822 12.084L9.90429 26.1439ZM9.90429 26.1439V26.1528C9.90429 26.1541 9.90413 26.1565 9.90292 26.1661L9.90275 26.1674C9.90177 26.1753 9.9 26.1893 9.9 26.2043C9.9 27.8122 11.3693 29.1 13.1521 29.1H23.6564C25.4393 29.1 26.9086 27.8122 26.9086 26.2043L26.9086 26.2018C26.9086 26.1875 26.9087 26.1635 26.9033 26.1374L25.7015 12.6037C25.7015 12.6037 25.7015 12.6036 25.7015 12.6036C25.6711 12.2507 25.374 11.984 25.0264 11.984H22.6501C22.5637 9.71627 20.6934 7.9 18.4043 7.9C16.1151 7.9 14.2449 9.71627 14.1585 11.984L9.90429 26.1439ZM18.4043 9.25951C19.943 9.25951 21.2039 10.4669 21.2893 11.984H15.5193C15.6047 10.4669 16.8656 9.25951 18.4043 9.25951ZM13.1521 27.7405C12.0996 27.7405 11.2788 27.0488 11.2596 26.2334L12.402 13.3479H14.1515V15.0086C14.1515 15.3859 14.454 15.6883 14.8313 15.6883C15.2086 15.6883 15.511 15.3859 15.511 15.0086V13.3479H21.2933V15.0086C21.2933 15.3859 21.5957 15.6883 21.973 15.6883C22.3503 15.6883 22.6528 15.3859 22.6528 15.0086V13.3479H24.4024L25.549 26.2334C25.5297 27.0487 24.7049 27.7405 23.6564 27.7405H13.1521Z" fill="white" stroke="white" stroke-width="0.2"/>
<circle cx="18.5" cy="18.5" r="18" stroke="white"/>
</svg>
