<svg width="21" height="22" viewBox="0 0 21 22" fill="none" xmlns="http://www.w3.org/2000/svg">
<path d="M20.75 11C20.75 16.9481 16.1501 21.75 10.5 21.75C4.84991 21.75 0.25 16.9481 0.25 11C0.25 5.05185 4.84991 0.25 10.5 0.25C16.1501 0.25 20.75 5.05185 20.75 11Z" fill="#3B5998" stroke="white" stroke-width="0.5"/>
<path d="M13.1441 4.52552V6.47964H11.8684C11.705 6.47964 11.4892 6.52178 11.3106 6.67526C11.1244 6.83528 11.0163 7.08367 11.0163 7.41849V8.90579V9.15579H11.2663H13.112L12.9131 11.1806H11.2661H11.0161V11.4306V18.3714H8.67747V11.4306V11.1806H8.42747H7.32739V9.15344H8.42747H8.67747V8.90344V7.26809C8.67747 6.71382 8.80429 6.0204 9.18888 5.4729C9.56342 4.93971 10.2007 4.51753 11.2909 4.5174C11.291 4.5174 11.2912 4.5174 11.2914 4.5174L13.1441 4.52552Z" fill="white" stroke="white" stroke-width="0.5"/>
</svg>
