<svg width="75" height="75" viewBox="0 0 75 75" fill="none" xmlns="http://www.w3.org/2000/svg"><g clip-path="url(#clip0)"><path d="M57.47 33.116a4.31 4.31 0 00-4.306-4.306H45.25c1.923-2.16 3.18-4.622 3.422-6.83.149-1.348-.268-2.686-1.143-3.672a4.128 4.128 0 00-3.08-1.413h-.04a4.283 4.283 0 00-3.037 1.246 4.253 4.253 0 00-1.267 3.023c-.042.25-.483 1.115-1.562 2.14-.883.841-2.409 1.996-4.662 2.728-.883.286-1.69.814-2.399 1.57a15.52 15.52 0 01-1.618 1.49 2.41 2.41 0 00-1.132-.281h-7.516a2.43 2.43 0 00-2.427 2.426V51.28a2.43 2.43 0 002.427 2.427h7.516c.912 0 1.708-.507 2.122-1.253h19.178c2.03 0 3.68-1.65 3.68-3.68 0-.681-.187-1.32-.512-1.869a3.68 3.68 0 001.253-5.01 3.68 3.68 0 001.124-5.213 4.306 4.306 0 001.893-3.565zm-4.306 1.957h-.627a1.174 1.174 0 000 2.349c.734 0 1.331.597 1.331 1.33 0 .735-.597 1.332-1.33 1.332h-1.253a1.174 1.174 0 000 2.348c.734 0 1.33.597 1.33 1.331s-.596 1.331-1.33 1.331h-1.253a1.174 1.174 0 000 2.35c.734 0 1.331.596 1.331 1.33 0 .734-.597 1.331-1.33 1.331H31.158V38.753a1.174 1.174 0 10-2.35 0V51.28a.078.078 0 01-.077.078h-7.516a.078.078 0 01-.078-.078V31.237c0-.043.035-.078.078-.078h7.516c.043 0 .078.035.078.078v2.505a1.174 1.174 0 002.349 0v-2.505c0-.057-.005-.113-.009-.169.88-.681 1.585-1.37 2.044-1.86.435-.462.91-.78 1.412-.943 2.765-.897 4.625-2.342 5.698-3.396 1.346-1.321 2.15-2.698 2.15-3.684 0-.521.202-1.01.571-1.375a1.97 1.97 0 011.403-.567 1.79 1.79 0 011.344.625c.429.482.64 1.176.565 1.856-.256 2.333-2.122 5.218-4.754 7.348a1.175 1.175 0 00.74 2.087h10.84a1.96 1.96 0 011.958 1.957 1.96 1.96 0 01-1.957 1.957z"/><path d="M24.974 46.334c-.648 0-1.18.532-1.18 1.18 0 .649.532 1.18 1.18 1.18.648 0 1.18-.531 1.18-1.18 0-.648-.531-1.18-1.18-1.18z"/><path d="M72.906 37.5l2.018-5.338a1.174 1.174 0 00-.182-1.15l-3.569-4.453.27-5.7c.02-.415-.182-.81-.529-1.037l-4.77-3.134-1.505-5.504c-.11-.4-.423-.714-.823-.823l-5.505-1.506-3.133-4.77a1.176 1.176 0 00-1.036-.527l-5.7.268L43.986.258a1.174 1.174 0 00-1.15-.182L37.5 2.094 32.161.076a1.174 1.174 0 00-1.149.182l-4.454 3.569-5.7-.27a1.172 1.172 0 00-1.037.529l-3.133 4.77-5.504 1.505c-.401.11-.714.423-.823.823L8.855 16.69l-4.77 3.133a1.174 1.174 0 00-.528 1.037l.269 5.7-3.568 4.454c-.26.324-.33.76-.182 1.15L2.093 37.5.076 42.84c-.147.388-.078.825.182 1.149l3.568 4.454-.27 5.7c-.019.415.182.81.53 1.037l4.769 3.133 1.505 5.505c.11.4.423.713.823.822l5.505 1.506 3.133 4.77c.228.347.623.546 1.037.528l5.7-.269 4.454 3.568c.324.26.761.33 1.15.182l5.338-2.017 5.338 2.017a1.176 1.176 0 001.15-.182l4.453-3.568 5.7.27c.416.018.81-.182 1.037-.53l3.134-4.769 5.504-1.505c.4-.11.713-.423.823-.823l1.505-5.505 4.77-3.133c.347-.228.548-.622.528-1.037l-.268-5.7 3.568-4.454c.26-.324.329-.761.182-1.15L72.906 37.5zm-2.353.416l1.937 5.126-3.427 4.277c-.179.224-.27.504-.257.79l.259 5.475-4.58 3.008a1.174 1.174 0 00-.489.672l-1.446 5.287-5.286 1.446c-.276.075-.515.249-.672.488l-3.009 4.58-5.475-.258a1.176 1.176 0 00-.79.257l-4.276 3.427-5.127-1.938a1.175 1.175 0 00-.83 0l-5.127 1.938-4.277-3.427a1.176 1.176 0 00-.79-.257l-5.475.258-3.009-4.58a1.175 1.175 0 00-.671-.488l-5.287-1.446-1.446-5.287a1.175 1.175 0 00-.488-.672l-4.58-3.008.258-5.475a1.173 1.173 0 00-.257-.79L2.51 43.042l1.938-5.127a1.175 1.175 0 000-.83l-1.938-5.127 3.427-4.277c.18-.223.27-.504.257-.79l-.259-5.474 4.581-3.009c.24-.157.413-.396.488-.672l1.446-5.286 5.287-1.446c.276-.075.514-.25.671-.488l3.01-4.58 5.474.258c.285.013.567-.078.79-.257l4.277-3.427 5.127 1.938c.267.1.562.1.83 0l5.127-1.938 4.277 3.427c.223.179.504.27.79.257l5.474-.259 3.009 4.58c.157.24.396.413.672.489l5.286 1.446 1.446 5.286c.075.276.25.515.488.672l4.58 3.01-.257 5.474c-.014.285.077.566.256.79l3.427 4.276-1.938 5.127c-.1.268-.1.563 0 .83z"/><path d="M59.566 17.223a30.504 30.504 0 00-1.842-1.842 1.174 1.174 0 10-1.589 1.73 28.462 28.462 0 011.7 1.7 1.171 1.171 0 001.66.07c.477-.438.51-1.18.07-1.658zM53.553 12.177C47.89 8.569 41.073 6.965 34.355 7.66a30.05 30.05 0 00-18.095 8.621 29.895 29.895 0 00-8.758 19.982 29.885 29.885 0 006.994 20.5 1.172 1.172 0 001.655.143c.496-.417.56-1.158.143-1.654a27.543 27.543 0 01-6.445-18.894 27.552 27.552 0 018.072-18.416 27.694 27.694 0 0116.676-7.946c6.193-.642 12.476.836 17.694 4.16a1.174 1.174 0 101.263-1.98zM62.77 21.393a1.174 1.174 0 10-1.98 1.262c3.324 5.218 4.801 11.502 4.16 17.694a27.695 27.695 0 01-7.946 16.677 27.553 27.553 0 01-18.416 8.071 27.54 27.54 0 01-18.894-6.444 1.174 1.174 0 10-1.512 1.797 29.868 29.868 0 0020.501 6.994 29.894 29.894 0 0019.982-8.757 30.048 30.048 0 008.621-18.096c.696-6.717-.908-13.535-4.516-19.198z"/></g><defs><clipPath id="clip0"><path d="M0 0h75v75H0z"/></clipPath></defs></svg>
