<svg width="71" height="71" viewBox="0 0 71 71" fill="none" xmlns="http://www.w3.org/2000/svg"><path d="M67.737 62.25h-1.183V31.395C69.225 29.676 71 26.68 71 23.272a1.04 1.04 0 00-.137-.516L62.61 8.314a3.27 3.27 0 00-2.833-1.644H11.223A3.27 3.27 0 008.39 8.314L.137 22.756c-.09.157-.137.335-.137.516 0 3.407 1.775 6.404 4.446 8.123V62.25H3.263a1.04 1.04 0 000 2.08h64.474a1.04 1.04 0 100-2.08zM2.152 24.312h3.334a1.04 1.04 0 100-2.08H2.832l7.364-12.886c.21-.368.604-.596 1.027-.596h48.554c.423 0 .817.228 1.027.596l7.364 12.886h-2.655a1.04 1.04 0 100 2.08h3.335c-.508 3.687-3.68 6.535-7.503 6.535-3.824 0-6.993-2.849-7.502-6.535h7.224a1.04 1.04 0 100-2.08H9.933a1.04 1.04 0 000 2.08h7.224c-.509 3.686-3.678 6.535-7.502 6.535S2.66 28 2.152 24.312zm49.465 0c-.509 3.686-3.678 6.535-7.502 6.535s-6.993-2.849-7.502-6.535h15.004zm-17.23 0c-.509 3.686-3.678 6.535-7.502 6.535s-6.993-2.849-7.502-6.535h15.004zM58.915 62.25H47.656v-3.478h11.26v3.478zm0-5.558H47.656v-19.04h11.26v19.04zm5.559 5.558h-3.479V36.612a1.04 1.04 0 00-1.04-1.04H46.617a1.04 1.04 0 00-1.04 1.04V62.25H6.526V32.404a9.608 9.608 0 003.129.523c3.757 0 7.02-2.157 8.615-5.298 1.595 3.14 4.858 5.298 8.615 5.298 3.757 0 7.02-2.157 8.615-5.298 1.595 3.14 4.858 5.298 8.615 5.298 3.757 0 7.02-2.157 8.615-5.298 1.595 3.14 4.858 5.298 8.615 5.298a9.61 9.61 0 003.129-.523V62.25z"/><path d="M41.058 35.572H11.045a1.04 1.04 0 00-1.04 1.04v21.12c0 .575.465 1.04 1.04 1.04h30.013a1.04 1.04 0 001.04-1.04v-21.12a1.04 1.04 0 00-1.04-1.04zm-1.04 21.12H12.085v-19.04h27.933v19.04z"/></svg>
