<svg width="68" height="68" viewBox="0 0 68 68" fill="none" xmlns="http://www.w3.org/2000/svg">
<g filter="url(#filter0_d)">
<circle cx="32" cy="30" r="30" fill="white"/>
<circle cx="32" cy="30" r="29.5" stroke="#00ACFF"/>
</g>
<path d="M45.0996 20.7344H41.1653C41.7736 19.9259 42.1348 18.9214 42.1348 17.834C42.1348 15.1685 39.9662 13 37.3008 13C35.6952 13 34.5113 13.5752 33.5748 14.8103C32.7914 15.8436 32.2185 17.2863 31.5 19.1092C30.7815 17.2863 30.2086 15.8436 29.4252 14.8103C28.4888 13.5752 27.3048 13 25.6992 13C23.0338 13 20.8652 15.1685 20.8652 17.834C20.8652 18.9214 21.2264 19.9259 21.8347 20.7344H17.9004C16.3011 20.7344 15 22.0355 15 23.6348V25.5684C15 26.8287 15.8083 27.9034 16.9336 28.3025V43.0996C16.9336 44.6989 18.2347 46 19.834 46H43.166C44.7653 46 46.0664 44.6989 46.0664 43.0996V28.3025C47.1917 27.9034 48 26.8287 48 25.5684V23.6348C48 22.0355 46.6989 20.7344 45.0996 20.7344ZM33.2747 19.8797C34.7557 16.1222 35.3188 14.9336 37.3008 14.9336C38.9001 14.9336 40.2012 16.2347 40.2012 17.834C40.2012 19.4333 38.9001 20.7344 37.3008 20.7344H32.9365C33.0549 20.4369 33.1679 20.1506 33.2747 19.8797ZM25.6992 14.9336C27.6812 14.9336 28.2443 16.1222 29.7253 19.8797C29.8321 20.1506 29.9451 20.4369 30.0635 20.7344H25.6992C24.0999 20.7344 22.7988 19.4333 22.7988 17.834C22.7988 16.2347 24.0999 14.9336 25.6992 14.9336ZM27.6328 44.0664H19.834C19.3009 44.0664 18.8672 43.6327 18.8672 43.0996V28.4688H27.6328V44.0664ZM27.6328 26.5352H17.9004C17.3673 26.5352 16.9336 26.1015 16.9336 25.5684V23.6348C16.9336 23.1017 17.3673 22.668 17.9004 22.668H27.6328V26.5352ZM33.4336 44.0664H29.5664V22.668C29.769 22.668 32.3224 22.668 33.4336 22.668V44.0664ZM44.1328 43.0996C44.1328 43.6327 43.6991 44.0664 43.166 44.0664H35.3672V28.4688H44.1328V43.0996ZM46.0664 25.5684C46.0664 26.1015 45.6327 26.5352 45.0996 26.5352H35.3672V22.668H45.0996C45.6327 22.668 46.0664 23.1017 46.0664 23.6348V25.5684Z" fill="#00ACFF"/>
<defs>
<filter id="filter0_d" x="0" y="0" width="68" height="68" filterUnits="userSpaceOnUse" color-interpolation-filters="sRGB">
<feFlood flood-opacity="0" result="BackgroundImageFix"/>
<feColorMatrix in="SourceAlpha" type="matrix" values="0 0 0 0 0 0 0 0 0 0 0 0 0 0 0 0 0 0 127 0"/>
<feOffset dx="2" dy="4"/>
<feGaussianBlur stdDeviation="2"/>
<feColorMatrix type="matrix" values="0 0 0 0 0 0 0 0 0 0 0 0 0 0 0 0 0 0 0.25 0"/>
<feBlend mode="normal" in2="BackgroundImageFix" result="effect1_dropShadow"/>
<feBlend mode="normal" in="SourceGraphic" in2="effect1_dropShadow" result="shape"/>
</filter>
</defs>
</svg>
