<svg width="22" height="22" viewBox="0 0 22 22" fill="none" xmlns="http://www.w3.org/2000/svg">
<path d="M21.75 11C21.75 16.9371 16.9371 21.75 11 21.75C5.06294 21.75 0.25 16.9371 0.25 11C0.25 5.06294 5.06294 0.25 11 0.25C16.9371 0.25 21.75 5.06294 21.75 11Z" fill="#6C27B3" stroke="white" stroke-width="0.5"/>
<path d="M8.45508 4.9537H13.5449C15.4754 4.9537 17.0463 6.52461 17.0464 8.45505V13.5449C17.0464 15.4754 15.4753 17.0463 13.545 17.0463H8.45512C6.52464 17.0463 4.95374 15.4753 4.95374 13.5449V8.45505C4.95374 6.5246 6.52463 4.9537 8.45508 4.9537ZM13.545 16.2795C15.0552 16.2795 16.2795 15.0552 16.2795 13.545V8.45509C16.2795 6.94491 15.0552 5.72051 13.545 5.72051H8.45512C6.94488 5.72051 5.72058 6.94486 5.72058 8.45509V13.545C5.72058 15.0552 6.94489 16.2795 8.45512 16.2795H13.545Z" fill="white" stroke="white" stroke-width="0.5"/>
<path d="M7.99304 11C7.99304 9.34225 9.34222 7.99307 11 7.99307C12.6577 7.99307 14.0068 9.34224 14.0068 11C14.0068 12.6578 12.6577 14.0068 11 14.0068C9.34222 14.0068 7.99304 12.6576 7.99304 11ZM8.75985 11C8.75985 12.2373 9.76284 13.24 11 13.24C12.2372 13.24 13.24 12.2372 13.24 11C13.24 9.76278 12.2372 8.75988 11 8.75988C9.76282 8.75988 8.75985 9.7628 8.75985 11Z" fill="white" stroke="white" stroke-width="0.5"/>
<path d="M14.7935 7.76762C14.7935 8.06054 14.556 8.29807 14.2631 8.29807C13.9702 8.29807 13.7327 8.06053 13.7327 7.76762C13.7327 7.47469 13.9702 7.23718 14.2631 7.23718C14.5561 7.23718 14.7935 7.47459 14.7935 7.76762Z" fill="#D1D1D1" stroke="white" stroke-width="0.5"/>
<path d="M11.2253 5.72051V4.9537H13.545C15.4754 4.9537 17.0463 6.52461 17.0463 8.45505V13.5449C17.0463 15.4754 15.4753 17.0463 13.545 17.0463H11.2253V16.2795H13.545C15.0552 16.2795 16.2795 15.0552 16.2795 13.545V8.45509C16.2795 6.94491 15.0552 5.72051 13.545 5.72051H11.2253Z" fill="#D1D1D1" stroke="white" stroke-width="0.5"/>
<path d="M11.2253 13.2288C12.3567 13.1158 13.24 12.1611 13.24 11C13.24 9.83884 12.3567 8.88407 11.2253 8.77107V8.00143C12.7783 8.11708 14.0068 9.41803 14.0068 11C14.0068 12.582 12.7783 13.8828 11.2253 13.9985V13.2288Z" fill="#D1D1D1" stroke="white" stroke-width="0.5"/>
</svg>
