<svg width="11" height="17" viewBox="0 0 11 17" fill="none" xmlns="http://www.w3.org/2000/svg">
<path d="M3.59218 1.4886H3.59286L3.5915 1.48038C3.58596 1.44714 3.59658 1.42198 3.61603 1.40383C3.63671 1.38454 3.66985 1.37126 3.70951 1.37126H7.30724C7.37683 1.37126 7.42457 1.42924 7.42457 1.4886C7.42457 1.55819 7.3666 1.60593 7.30724 1.60593H3.70951C3.63992 1.60593 3.59218 1.54795 3.59218 1.4886ZM8.9806 0.501514H2.01942C1.4056 0.501514 0.931934 0.992969 0.931934 1.589V15.3942C0.931934 16.008 1.42339 16.4817 2.01942 16.4817H8.9806C9.57715 16.4817 10.0681 15.9908 10.0681 15.3942V1.60642C10.0852 0.992091 9.59336 0.501514 8.9806 0.501514ZM5.50001 15.9299C5.14275 15.9299 4.86393 15.6511 4.86393 15.2938C4.86393 14.9366 5.14275 14.6577 5.50001 14.6577C5.85727 14.6577 6.13609 14.9366 6.13609 15.2938C6.13609 15.6511 5.85727 15.9299 5.50001 15.9299ZM9.1314 14.039H1.86861V2.32507H9.1314V14.039Z" fill="#00ACFF" stroke="#00ACFF" stroke-width="0.1"/>
</svg>
