<svg width="22" height="22" viewBox="0 0 22 22" fill="none" xmlns="http://www.w3.org/2000/svg">
<path d="M21.75 11.0377C21.75 16.877 17.0162 21.6108 11.1769 21.6108C5.3375 21.6108 0.60376 16.877 0.60376 11.0377C0.60376 5.19831 5.3375 0.464569 11.1769 0.464569C17.0162 0.464569 21.75 5.19831 21.75 11.0377Z" fill="#4D76A1" stroke="white" stroke-width="0.5"/>
<path d="M10.7606 15.5346H10.7681H11.6002C11.604 15.534 11.6087 15.5332 11.6141 15.5322C11.6331 15.5286 11.6598 15.5228 11.689 15.5138C11.7548 15.4936 11.8012 15.4675 11.8219 15.4452L11.8221 15.4449C11.8335 15.4327 11.8516 15.3966 11.8629 15.335C11.8677 15.3085 11.87 15.2842 11.8711 15.2668C11.8714 15.2624 11.8716 15.2586 11.8717 15.2554C11.8718 15.2523 11.8719 15.2499 11.8719 15.2481L11.8719 15.2447L11.8719 15.2447L11.8719 15.2439L11.8719 15.2405L11.8719 15.229C11.8719 15.2192 11.872 15.2054 11.8723 15.1881C11.8729 15.1536 11.8745 15.1048 11.8781 15.046C11.8852 14.9292 11.9007 14.7693 11.9347 14.6015C11.9683 14.4359 12.0224 14.2497 12.1128 14.0876C12.2032 13.9257 12.3438 13.7642 12.5587 13.6961L12.5588 13.696C12.8019 13.619 13.0267 13.7217 13.195 13.8396C13.3676 13.9605 13.5387 14.1376 13.7 14.3168C13.7737 14.3987 13.8433 14.4785 13.9123 14.5577C14.0049 14.664 14.0965 14.7691 14.1957 14.8764C14.363 15.0574 14.5228 15.2113 14.6768 15.317L14.6769 15.3171C14.9126 15.479 15.1129 15.5377 15.2467 15.5582C15.3141 15.5685 15.3659 15.5693 15.398 15.5681C15.4141 15.5674 15.4253 15.5663 15.431 15.5656L15.4347 15.5651L15.4536 15.5613L15.4764 15.561L17.3663 15.5347L17.3666 15.5347C17.3713 15.5343 17.379 15.5335 17.3893 15.5323C17.4099 15.5297 17.4397 15.5254 17.4744 15.5181C17.547 15.5029 17.6262 15.4781 17.6873 15.4417C17.7472 15.406 17.7672 15.3737 17.7734 15.347C17.7801 15.3182 17.7847 15.2359 17.6858 15.0719C17.6813 15.0645 17.6759 15.0547 17.6691 15.0424C17.636 14.9822 17.5692 14.8607 17.4078 14.6504C17.212 14.3951 16.8788 14.0132 16.3187 13.4933C16.3033 13.479 16.2882 13.465 16.2732 13.451C16.0048 13.2021 15.7884 13.0014 15.6502 12.8223C15.4929 12.6185 15.4064 12.4041 15.4618 12.1423C15.5096 11.9162 15.6603 11.6843 15.8551 11.4194C15.9514 11.2884 16.0721 11.1322 16.2115 10.9517C16.354 10.7673 16.516 10.5575 16.6916 10.3235C17.1247 9.7463 17.4202 9.29128 17.5933 8.94929C17.6799 8.7781 17.7317 8.64335 17.7565 8.54131C17.7794 8.44718 17.7745 8.40067 17.7706 8.38439C17.7669 8.3812 17.7585 8.37532 17.7418 8.36786C17.7019 8.34994 17.642 8.33614 17.5681 8.32887C17.4968 8.32185 17.4257 8.32213 17.3712 8.32447C17.3444 8.32563 17.3225 8.32723 17.3078 8.3285L17.2916 8.33002L17.2882 8.33038L17.2881 8.33039L17.2881 8.3304L17.288 8.33041L17.2878 8.33042L17.2877 8.33044L17.2742 8.33205L17.2601 8.33214L15.1232 8.34545L15.1054 8.34556L15.0899 8.34344C15.0899 8.34344 15.0899 8.34344 15.0898 8.34344L15.0812 8.34279C15.0721 8.34229 15.0587 8.34199 15.0433 8.34295C15.0077 8.34516 14.9841 8.35264 14.974 8.35866L14.8457 8.14407M10.7606 15.5346L7.35969 10.146C7.7846 10.8802 8.1089 11.3514 8.37405 11.6198C8.50662 11.754 8.64194 11.8559 8.78553 11.9047C8.94219 11.958 9.09352 11.9426 9.22722 11.8697L9.22731 11.8697C9.34236 11.8069 9.41568 11.7029 9.46356 11.6086C9.51289 11.5115 9.54802 11.3992 9.57411 11.2859C9.62638 11.059 9.65084 10.7894 9.66159 10.5389C9.67244 10.2862 9.66971 10.0422 9.66437 9.86212C9.66169 9.77186 9.65834 9.69713 9.65564 9.64473C9.65429 9.61852 9.6531 9.59787 9.65224 9.58363L9.65141 9.57051L9.65141 9.57041L9.65127 9.54575C9.65103 9.52477 9.65042 9.49507 9.64897 9.45874C9.64607 9.38638 9.63975 9.28621 9.62596 9.1753C9.60024 8.9686 9.5427 8.66859 9.39163 8.463C9.26971 8.29698 9.10151 8.19921 8.95788 8.14111C8.95532 8.14007 8.95277 8.13905 8.95021 8.13803C8.96188 8.13111 8.97377 8.12464 8.98578 8.11875L8.98583 8.11873C9.12484 8.05062 9.33877 8.00599 9.6333 7.98266C9.9232 7.9597 10.265 7.9589 10.6465 7.96286L10.6466 7.96286C11.2243 7.96868 11.3761 8.00392 11.5876 8.05504L11.5877 8.05506C11.7216 8.0874 11.777 8.13343 11.8087 8.17903C11.8467 8.23363 11.8778 8.32633 11.8907 8.50054C11.9035 8.67366 11.8966 8.89233 11.8852 9.1799C11.8843 9.20258 11.8833 9.22563 11.8824 9.24905C11.8716 9.51764 11.8588 9.83426 11.8588 10.1998C11.8588 10.2671 11.8567 10.3453 11.8544 10.4294C11.8493 10.6222 11.8433 10.846 11.8598 11.0414C11.883 11.3168 11.9565 11.6642 12.2445 11.8503L12.2447 11.8505C12.3448 11.915 12.4704 11.938 12.6083 11.9015C12.7348 11.8681 12.8615 11.7879 12.993 11.6691C13.2558 11.4319 13.6045 10.9794 14.0832 10.1665C14.3157 9.77173 14.5175 9.34529 14.6604 9.01995C14.7321 8.85673 14.7895 8.71778 14.8291 8.6194C14.8489 8.57018 14.8642 8.53106 14.8747 8.50406L14.8864 8.47371L14.8903 8.46624C14.8961 8.45557 14.9047 8.44052 14.9157 8.42425C14.9413 8.38628 14.9637 8.36481 14.9744 8.35845L14.8457 8.14407M10.7606 15.5346L10.7537 15.535M10.7606 15.5346L10.7537 15.535M14.8457 8.14407C14.9632 8.07385 15.1216 8.09546 15.1216 8.09546L14.657 8.37347C14.657 8.37347 14.7309 8.21295 14.8457 8.14407ZM10.7537 15.535L10.7536 15.535M10.7537 15.535L10.7536 15.535M10.7536 15.535L10.7535 15.535M10.7536 15.535L10.7535 15.535M10.7535 15.535L10.7533 15.535M10.7535 15.535L10.7533 15.535M10.7533 15.535L10.7531 15.535M10.7533 15.535L10.7531 15.535M10.7531 15.535L10.7515 15.5351L10.7395 15.5355C10.728 15.5359 10.7099 15.5362 10.6856 15.5361C10.6369 15.5358 10.5636 15.5338 10.4696 15.5262C10.2814 15.511 10.0114 15.4737 9.69125 15.3852C9.05197 15.2085 8.21261 14.8273 7.42355 14.0058C6.54844 13.0946 5.71414 11.7216 5.09378 10.5614C4.78508 9.98406 4.53208 9.46462 4.35632 9.08964C4.26847 8.90221 4.19999 8.75104 4.15358 8.64697C4.13037 8.59493 4.11269 8.55468 4.10086 8.52758L4.08756 8.49695L4.08648 8.49444C4.08522 8.49063 4.0833 8.4846 4.0811 8.47689C4.07625 8.45986 4.07089 8.43753 4.06769 8.4144C4.06569 8.39995 4.06495 8.38804 4.06494 8.37881C4.06758 8.3775 4.07061 8.37608 4.07407 8.37456C4.09725 8.36439 4.12777 8.35532 4.16239 8.34814C4.19618 8.34114 4.22831 8.33708 4.25222 8.33482C4.26397 8.33371 4.27322 8.33308 4.27908 8.33274L4.28393 8.3325L6.28447 8.31938C6.28471 8.31944 6.28497 8.31949 6.28522 8.31955C6.29991 8.3229 6.32131 8.32831 6.34603 8.33613C6.39874 8.35282 6.45183 8.37593 6.48915 8.40332L6.63705 8.20176M10.7531 15.535L6.30868 8.06922C6.30868 8.06922 6.50007 8.10124 6.63705 8.20176M6.63705 8.20176C6.74992 8.28472 6.8132 8.43984 6.8132 8.43984L6.58073 8.53181L6.58075 8.53187L6.58082 8.53205L6.58105 8.53263L6.58188 8.5347L6.58195 8.53489M6.63705 8.20176L6.48899 8.4032C6.5076 8.41688 6.53143 8.445 6.55392 8.48193C6.564 8.49848 6.57171 8.51332 6.57669 8.52357L6.58168 8.53427L6.58195 8.53489M6.58195 8.53489L6.58493 8.54235L6.59655 8.57112C6.6067 8.59607 6.62157 8.63228 6.64072 8.67796C6.67903 8.76928 6.73456 8.89865 6.80386 9.05177C6.94208 9.35722 7.13662 9.76062 7.35967 10.1459L6.58195 8.53489ZM14.8838 8.47866L14.8841 8.4781L14.8841 8.47819L14.884 8.47836L14.8838 8.47866ZM17.7733 8.38705C17.7732 8.38706 17.7728 8.3867 17.7723 8.3859C17.773 8.38664 17.7733 8.38703 17.7733 8.38705ZM12.1219 15.242L11.8719 15.2457L11.8719 15.2456C11.8719 15.2456 11.8719 15.2457 12.1219 15.242Z" fill="white" stroke="white" stroke-width="0.5"/>
</svg>
