<svg width="19" height="23" fill="none" xmlns="http://www.w3.org/2000/svg"><path d="M.904 19.144h0l1.203-13.54s0 0 0 0h0l.1.008a.576.576 0 01.575-.528L.904 19.144zm0 0v.009l-.001.013v.001c-.001.008-.003.022-.003.037 0 1.608 1.47 2.896 3.252 2.896h10.504c1.783 0 3.253-1.288 3.253-2.896v-.002c0-.015 0-.039-.006-.065L16.702 5.604s0 0 0 0a.679.679 0 00-.676-.62H13.65A4.252 4.252 0 009.404.9a4.252 4.252 0 00-4.246 4.084L.904 19.144zm8.5-16.884c1.539 0 2.8 1.207 2.885 2.724H6.52A2.892 2.892 0 019.404 2.26zM4.152 20.74c-1.052 0-1.873-.691-1.892-1.507L3.402 6.348h1.75v1.66c0 .378.302.68.68.68a.677.677 0 00.679-.68v-1.66h5.782v1.66c0 .378.303.68.68.68.377 0 .68-.302.68-.68v-1.66h1.75l1.146 12.885c-.02.816-.844 1.508-1.893 1.508H4.152z" fill="#fff" stroke="#fff" stroke-width=".2"/></svg>