<svg width="37" height="37" fill="none" xmlns="http://www.w3.org/2000/svg"><path d="M9.904 26.144h0l1.203-13.54s0 0 0 0h0l.1.008a.576.576 0 01.575-.528l-1.878 14.06zm0 0v.009l-.001.013v.001c-.001.008-.003.022-.003.037 0 1.608 1.47 2.896 3.252 2.896h10.504c1.783 0 3.253-1.288 3.253-2.896v-.002c0-.015 0-.039-.006-.065l-1.201-13.533s0 0 0 0a.679.679 0 00-.676-.62H22.65A4.252 4.252 0 0018.404 7.9a4.252 4.252 0 00-4.245 4.084l-4.255 14.16zm8.5-16.884c1.539 0 2.8 1.207 2.885 2.724h-5.77a2.892 2.892 0 012.885-2.724zm-5.252 18.48c-1.052 0-1.873-.691-1.892-1.507l1.142-12.885h1.75v1.66c0 .378.302.68.68.68a.677.677 0 00.679-.68v-1.66h5.782v1.66c0 .378.303.68.68.68.377 0 .68-.302.68-.68v-1.66h1.75l1.146 12.885c-.02.816-.844 1.508-1.893 1.508H13.152z" fill="#fff" stroke="#fff" stroke-width=".2"/><circle cx="18.5" cy="18.5" r="18" stroke="#fff"/></svg>