<svg width="21" height="22" fill="none" xmlns="http://www.w3.org/2000/svg"><path d="M20.75 11c0 5.948-4.6 10.75-10.25 10.75S.25 16.948.25 11 4.85.25 10.5.25 20.75 5.052 20.75 11z" fill="#3B5998" stroke="#fff" stroke-width=".5"/><path d="M13.144 4.526V6.48h-1.276a.854.854 0 00-.557.195c-.187.16-.295.409-.295.743v1.738h2.096l-.199 2.025h-1.897v7.19H8.677v-7.19h-1.35V9.153h1.35V7.268c0-.554.127-1.248.512-1.795.374-.533 1.012-.955 2.102-.956 0 0 0 0 0 0l1.853.009z" fill="#fff" stroke="#fff" stroke-width=".5"/></svg>