<svg width="75" height="74" fill="none" xmlns="http://www.w3.org/2000/svg"><g clip-path="url(#clip0)"><path d="M38.48 40.371a1.186 1.186 0 00-.423-.014c-1.408-.162-2.47-1.337-2.473-2.736 0-.67-.551-1.213-1.23-1.213-.68 0-1.23.543-1.23 1.213.003 2.335 1.586 4.38 3.869 4.998v1.214c0 .67.55 1.213 1.23 1.213.68 0 1.23-.543 1.23-1.213v-1.14c2.635-.544 4.426-2.964 4.149-5.605-.278-2.64-2.533-4.647-5.225-4.648-1.543 0-2.793-1.233-2.793-2.755 0-1.521 1.25-2.755 2.793-2.755 1.543 0 2.793 1.234 2.793 2.755 0 .67.551 1.214 1.23 1.214.68 0 1.23-.544 1.23-1.214-.003-2.451-1.744-4.566-4.177-5.072V23.51c0-.67-.55-1.213-1.23-1.213-.68 0-1.23.543-1.23 1.213v1.178c-2.538.684-4.172 3.115-3.823 5.687.35 2.573 2.575 4.493 5.207 4.492 1.522 0 2.764 1.203 2.791 2.703.029 1.5-1.168 2.747-2.689 2.802z"/><path d="M20.538 33.747c0 9.717 7.986 17.595 17.839 17.595 9.852 0 17.84-7.878 17.84-17.595 0-9.718-7.987-17.595-17.84-17.595-9.848.01-17.828 7.882-17.84 17.595zm17.839-15.169c8.494 0 15.379 6.791 15.379 15.169 0 8.377-6.885 15.168-15.379 15.168s-15.379-6.79-15.379-15.168c.01-8.374 6.89-15.16 15.379-15.169z"/><path d="M62.28 54.333l-9.636 4.49c-1.33-2.44-3.883-3.994-6.692-4.072l-8.896-.24a9.5 9.5 0 01-4.043-1.03l-.905-.463a16.164 16.164 0 00-14.79.015l.056-2.023a1.22 1.22 0 00-1.196-1.246l-9.755-.265a1.222 1.222 0 00-1.263 1.18l-.59 21.114a1.22 1.22 0 001.197 1.246l9.755.265h.034c.666 0 1.212-.523 1.23-1.18l.028-1.01 2.534-1.339a4.401 4.401 0 013.245-.35l15.133 4.19.08.02a16.608 16.608 0 0010.183-1.138c.053-.024.104-.052.153-.083l21.943-13.999a1.204 1.204 0 00.403-1.616c-1.63-2.851-5.243-3.937-8.207-2.466zM7.065 70.647l.522-18.689 7.295.198-.521 18.69-7.296-.199zm39.817-.318a14.126 14.126 0 01-8.53.94l-15.093-4.18a6.887 6.887 0 00-5.07.548l-1.296.684.347-12.426a13.684 13.684 0 0113.738-.723l.905.463a12.012 12.012 0 005.107 1.301l8.897.241c2.498.071 4.62 1.826 5.128 4.241l-13.252-.36a1.224 1.224 0 00-1.264 1.179 1.221 1.221 0 001.196 1.246l14.624.397h.035c.666 0 1.21-.523 1.229-1.18a7.6 7.6 0 00-.12-1.574l9.885-4.606.029-.014a3.8 3.8 0 014.25.587L46.881 70.33zM39.607 12.74V1.213c0-.67-.55-1.213-1.23-1.213-.68 0-1.23.543-1.23 1.213V12.74c0 .67.55 1.214 1.23 1.214.68 0 1.23-.544 1.23-1.214zm9.227 0V7.28c0-.67-.551-1.213-1.23-1.213-.68 0-1.23.543-1.23 1.213v5.46c0 .67.55 1.214 1.23 1.214.679 0 1.23-.544 1.23-1.214zm-18.454 0V7.28c0-.67-.55-1.213-1.23-1.213-.679 0-1.23.543-1.23 1.213v5.46c0 .67.551 1.214 1.23 1.214.68 0 1.23-.544 1.23-1.214z"/></g><defs><clipPath id="clip0"><path d="M0 0h75v73.973H0z"/></clipPath></defs></svg>