<svg width="76" height="76" fill="none" xmlns="http://www.w3.org/2000/svg"><path d="M10.305 42.506c-.711 0-1.288.577-1.288 1.288v5.153a1.288 1.288 0 002.576 0v-5.153c0-.711-.577-1.288-1.288-1.288zm5.152 2.576c-.711 0-1.288.577-1.288 1.288v5.153a1.288 1.288 0 002.576 0V46.37c0-.711-.576-1.288-1.288-1.288zm46.981 6.913a1.288 1.288 0 00-1.443 2.133 7.728 7.728 0 11-4.32-1.317 1.288 1.288 0 100-2.577c-5.69.002-10.303 4.616-10.302 10.307 0 5.69 4.615 10.303 10.306 10.302 5.691 0 10.304-4.615 10.302-10.306 0-3.425-1.703-6.627-4.543-8.542z"/><path d="M71.525 56.26a15.45 15.45 0 00-8.41-9.76V18.032c0-.455-.24-.877-.632-1.109L34.146.18a1.288 1.288 0 00-1.312 0L4.497 16.924c-.027.015-.046.039-.072.057-.026.018-.05.038-.076.059a1.27 1.27 0 00-.285.314c0 .01-.015.014-.02.024v.009a1.28 1.28 0 00-.146.42c0 .04-.011.075-.015.114-.004.039-.018.073-.018.112v33.49c0 .455.24.877.632 1.109l28.337 16.744c.034.017.07.031.105.044a.854.854 0 00.108.046c.284.119.603.119.886 0a.881.881 0 00.11-.046c.033-.015.07-.024.103-.044l7.69-4.545c2.367 8.198 10.932 12.925 19.13 10.559 8.198-2.367 12.926-10.931 10.559-19.13zM33.49 2.785l6.698 3.958-9.93 5.868a1.289 1.289 0 101.31 2.22l11.154-6.586 6.697 3.958-25.804 15.244-6.698-3.958 10.79-6.376a1.289 1.289 0 00-1.312-2.22l-12.01 7.1-6.7-3.959L33.49 2.783zM22.326 29.678v8.6l-6.654-3.932v-8.6l6.654 3.932zm19.401 26.88a15.402 15.402 0 00-.509 3.98c0 .54.03 1.079.085 1.615l-6.525 3.858v-4.184a1.288 1.288 0 00-2.576 0v4.184L6.441 50.788V20.291l6.655 3.933V35.08c0 .455.24.878.633 1.11l9.23 5.455a1.288 1.288 0 001.944-1.109V31.2l7.299 4.313v21.162a1.288 1.288 0 002.576 0V35.513l23.345-13.795a1.288 1.288 0 10-1.311-2.218L33.49 33.282l-7.342-4.34 25.805-15.248 8.586 5.073v26.83c-8.22-2.168-16.643 2.739-18.812 10.96zm14.948 16.861c-7.114 0-12.88-5.766-12.88-12.88 0-7.114 5.766-12.88 12.88-12.88 7.114 0 12.88 5.766 12.88 12.88-.007 7.11-5.77 12.873-12.88 12.88z"/><path d="M61.418 57.052a1.288 1.288 0 00-1.79 0l-4.885 4.886-1.021-1.022a1.288 1.288 0 00-1.822 1.822l1.932 1.932a1.288 1.288 0 001.822 0l5.796-5.797a1.288 1.288 0 00-.032-1.82z"/></svg>