<svg width="68" height="68" fill="none" xmlns="http://www.w3.org/2000/svg"><g filter="url(#filter0_d)"><circle cx="32" cy="30" r="30" fill="#fff"/><circle cx="32" cy="30" r="29.5" stroke="#00ACFF"/></g><path d="M45.1 20.734h-3.935c.609-.808.97-1.813.97-2.9A4.84 4.84 0 0037.3 13c-1.606 0-2.79.575-3.726 1.81-.784 1.034-1.357 2.476-2.075 4.3-.718-1.824-1.291-3.266-2.075-4.3C28.49 13.575 27.305 13 25.7 13a4.84 4.84 0 00-4.834 4.834c0 1.087.361 2.092.97 2.9H17.9a2.903 2.903 0 00-2.9 2.9v1.934c0 1.26.808 2.335 1.934 2.734V43.1c0 1.599 1.3 2.9 2.9 2.9h23.332c1.6 0 2.9-1.301 2.9-2.9V28.302A2.905 2.905 0 0048 25.569v-1.933c0-1.6-1.301-2.9-2.9-2.9zm-11.825-.854c1.48-3.758 2.044-4.946 4.026-4.946 1.6 0 2.9 1.3 2.9 2.9 0 1.6-1.3 2.9-2.9 2.9h-4.364l.338-.854zm-7.576-4.946c1.982 0 2.545 1.188 4.026 4.946l.338.854H25.7c-1.6 0-2.9-1.3-2.9-2.9 0-1.6 1.3-2.9 2.9-2.9zm1.934 29.132h-7.799a.968.968 0 01-.967-.966V28.469h8.766v15.597zm0-17.53H17.9a.968.968 0 01-.966-.968v-1.933c0-.533.433-.967.966-.967h9.733v3.867zm5.8 17.53h-3.867V22.668h3.868v21.398zm10.7-.966a.968.968 0 01-.967.966h-7.799V28.47h8.766V43.1zm1.933-17.532a.968.968 0 01-.966.967h-9.733v-3.867H45.1c.533 0 .966.434.966.967v1.933z" fill="#00ACFF"/><defs><filter id="filter0_d" x="0" y="0" width="68" height="68" filterUnits="userSpaceOnUse" color-interpolation-filters="sRGB"><feFlood flood-opacity="0" result="BackgroundImageFix"/><feColorMatrix in="SourceAlpha" values="0 0 0 0 0 0 0 0 0 0 0 0 0 0 0 0 0 0 127 0"/><feOffset dx="2" dy="4"/><feGaussianBlur stdDeviation="2"/><feColorMatrix values="0 0 0 0 0 0 0 0 0 0 0 0 0 0 0 0 0 0 0.25 0"/><feBlend in2="BackgroundImageFix" result="effect1_dropShadow"/><feBlend in="SourceGraphic" in2="effect1_dropShadow" result="shape"/></filter></defs></svg>