<svg width="244" height="40" fill="none" xmlns="http://www.w3.org/2000/svg"><g clip-path="url(#clip0)"><path d="M0 14.13L22.77 40l22.143-25.87L40.886 0H4.405L0 14.13z" fill="#212121"/><path d="M5.5 1.843L1.656 13.828l21.08 24.226 20.757-24.476L39.72 1.843l-16.99 35.33L5.499 1.842z" fill="#00A9E1"/><path d="M7.107 1.594l3.147 6.688h7.673l4.797 27.255L27.74 8.154h7.424l3.397-6.56H7.107zm58.716 28.594h-5.096V10.342h-6.514V6.087H72.36v4.255h-6.537v19.846zm32.032-12.083c0 3.99-.986 7.056-2.956 9.199-1.97 2.142-4.797 3.214-8.48 3.214-3.684 0-6.51-1.072-8.481-3.214-1.97-2.143-2.96-5.22-2.967-9.233 0-4.01.99-7.073 2.967-9.19 1.978-2.118 4.812-3.175 8.503-3.173 3.694 0 6.518 1.067 8.473 3.199 1.956 2.132 2.936 5.199 2.94 9.198zm-17.535 0c0 2.693.509 4.72 1.528 6.084 1.02 1.362 2.543 2.044 4.57 2.044 4.067 0 6.098-2.71 6.096-8.128-.002-5.418-2.024-8.132-6.065-8.142-2.028 0-3.557.684-4.586 2.052-1.029 1.367-1.543 3.398-1.543 6.09zm39.115-4.5c0 2.594-.807 4.577-2.423 5.95-1.615 1.373-3.913 2.06-6.895 2.06h-2.185v8.573h-5.096V6.087h7.673c2.917 0 5.133.63 6.651 1.893 1.517 1.261 2.275 3.136 2.275 5.625zm-11.503 3.823h1.675c1.568 0 2.74-.31 3.518-.931a3.253 3.253 0 001.166-2.71c0-1.197-.326-2.08-.977-2.65-.652-.57-1.674-.852-3.065-.845h-2.317v7.136z" fill="#fff"/><path d="M137.68 6.087h5.144l-8.171 24.101h-5.552l-8.152-24.101h5.144l4.529 14.343c.252.845.512 1.832.782 2.96.269 1.128.436 1.91.502 2.347a42.773 42.773 0 011.23-5.3l4.544-14.35zm22.876 24.101l-1.74-5.738h-8.76l-1.744 5.738h-5.488l8.481-24.2h6.228l8.514 24.2h-5.491zm-2.955-10.023a1934.086 1934.086 0 01-2.722-8.816 27.1 27.1 0 01-.438-1.617c-.359 1.406-1.395 4.883-3.106 10.433h6.266zm32.786 10.023h-6.476l-10.432-18.23h-.148c.209 3.217.312 5.514.31 6.89v11.355h-4.571V6.087h6.416l10.448 18.052h.113c-.161-3.134-.243-5.348-.246-6.643V6.086h4.586v24.102zm27.367 0h-6.476l-10.455-18.23h-.147c.209 3.217.313 5.514.313 6.89v11.355h-4.552V6.087h6.416l10.436 18.052h.117c-.166-3.134-.248-5.348-.245-6.643V6.086h4.586l.007 24.102zm20.755 0l-1.74-5.738h-8.76l-1.744 5.738h-5.488l8.481-24.2h6.227l8.515 24.2h-5.491zm-2.956-10.023c-1.61-5.196-2.517-8.135-2.721-8.816a23.844 23.844 0 01-.434-1.617c-.362 1.406-1.398 4.883-3.106 10.433h6.261z" fill="#00ACFF"/></g><defs><clipPath id="clip0"><path fill="#fff" d="M0 0h244v40H0z"/></clipPath></defs></svg>