<svg width="22" height="22" fill="none" xmlns="http://www.w3.org/2000/svg"><path d="M21.75 11c0 5.937-4.813 10.75-10.75 10.75S.25 16.937.25 11 5.063.25 11 .25 21.75 5.063 21.75 11z" fill="#6C27B3" stroke="#fff" stroke-width=".5"/><path d="M8.455 4.954h5.09c1.93 0 3.501 1.57 3.501 3.501v5.09a3.506 3.506 0 01-3.501 3.501h-5.09a3.506 3.506 0 01-3.501-3.501v-5.09c0-1.93 1.57-3.501 3.501-3.501zm5.09 11.325a2.735 2.735 0 002.734-2.734v-5.09a2.735 2.735 0 00-2.734-2.734h-5.09a2.735 2.735 0 00-2.734 2.734v5.09a2.735 2.735 0 002.734 2.734h5.09z" fill="#fff" stroke="#fff" stroke-width=".5"/><path d="M7.993 11A3.01 3.01 0 0111 7.993 3.01 3.01 0 0114.007 11 3.01 3.01 0 0111 14.007 3.01 3.01 0 017.993 11zm.767 0a2.24 2.24 0 104.48 0 2.24 2.24 0 00-4.48 0z" fill="#fff" stroke="#fff" stroke-width=".5"/><path d="M14.793 7.768a.53.53 0 11-1.06 0 .53.53 0 011.06 0z" fill="#D1D1D1" stroke="#fff" stroke-width=".5"/><path d="M11.225 5.72v-.766h2.32c1.93 0 3.501 1.57 3.501 3.501v5.09a3.506 3.506 0 01-3.501 3.501h-2.32v-.767h2.32a2.735 2.735 0 002.734-2.734v-5.09a2.735 2.735 0 00-2.734-2.734h-2.32z" fill="#D1D1D1" stroke="#fff" stroke-width=".5"/><path d="M11.225 13.229a2.24 2.24 0 000-4.458v-.77A3.011 3.011 0 0114.007 11a3.011 3.011 0 01-2.782 2.998v-.77z" fill="#D1D1D1" stroke="#fff" stroke-width=".5"/></svg>