<svg width="11" height="17" fill="none" xmlns="http://www.w3.org/2000/svg"><path d="M3.592 1.489h0V1.48a.08.08 0 01.024-.076.137.137 0 01.094-.033h3.597a.118.118 0 010 .235H3.71a.118.118 0 01-.118-.117zM8.981.502H2.019C1.406.502.932.993.932 1.589v13.805c0 .614.491 1.088 1.087 1.088h6.962c.596 0 1.087-.491 1.087-1.088V1.606A1.076 1.076 0 008.981.502zM5.5 15.93a.629.629 0 01-.636-.636c0-.357.279-.636.636-.636s.636.279.636.636a.629.629 0 01-.636.636zm3.631-1.891H1.87V2.325h7.26V14.04z" fill="#fff" stroke="#fff" stroke-width=".1"/></svg>