<svg width="22" height="22" fill="none" xmlns="http://www.w3.org/2000/svg"><path d="M21.75 11.038c0 5.839-4.734 10.573-10.573 10.573-5.84 0-10.573-4.734-10.573-10.573C.604 5.198 5.338.465 11.177.465c5.84 0 10.573 4.733 10.573 10.573z" fill="#4D76A1" stroke="#fff" stroke-width=".5"/><path d="M10.76 15.535h.84a.54.54 0 00.089-.021.322.322 0 00.133-.069h0a.246.246 0 00.04-.11.602.602 0 00.01-.08v-.01h0v-.016a2.414 2.414 0 01.006-.183 3.25 3.25 0 01.057-.444c.033-.166.087-.352.178-.514a.796.796 0 01.446-.392h0c.243-.077.468.026.636.144.173.12.344.298.505.477.074.082.143.162.212.24.093.107.184.212.284.32.167.18.327.334.48.44h0c.237.162.437.22.57.241a.811.811 0 00.185.008h.004l.019-.005h.022l1.89-.026h0a.811.811 0 00.108-.017.72.72 0 00.213-.076c.06-.036.08-.068.086-.095.007-.029.012-.111-.087-.275l-.017-.03c-.033-.06-.1-.181-.261-.392-.196-.255-.53-.637-1.09-1.157l-.045-.042c-.268-.249-.485-.45-.623-.629-.157-.204-.244-.418-.188-.68.048-.226.198-.458.393-.723.096-.13.217-.287.357-.467.142-.185.304-.395.48-.629.433-.577.728-1.032.901-1.374.087-.17.139-.306.163-.408a.364.364 0 00.015-.157.121.121 0 00-.03-.016.586.586 0 00-.173-.04 1.435 1.435 0 00-.26 0l-.016.002h-.004 0l-.014.002h-.014l-2.137.013h-.018l-.015-.002s0 0 0 0h-.009a.33.33 0 00-.038 0 .17.17 0 00-.069.016l-.128-.215m-4.085 7.39L7.36 10.147c.425.734.749 1.205 1.014 1.474.133.134.268.236.412.285a.536.536 0 00.441-.035h0a.595.595 0 00.237-.261c.049-.098.084-.21.11-.323.052-.227.077-.497.088-.747a9.548 9.548 0 00-.01-.955V9.57h0v-.025a3.086 3.086 0 00-.026-.37c-.026-.207-.083-.507-.234-.713a.991.991 0 00-.442-.325.511.511 0 01.036-.02h0c.139-.067.353-.112.647-.135.29-.023.632-.024 1.014-.02h0c.577.006.73.04.94.092h0c.135.032.19.078.222.124.038.055.069.147.082.322a6.51 6.51 0 01-.006.679l-.003.07c-.01.268-.023.584-.023.95 0 .067-.002.145-.005.23-.005.192-.01.416.006.611.023.276.097.623.385.81h0c.1.064.225.087.363.05a.962.962 0 00.385-.232c.263-.237.611-.69 1.09-1.503.233-.394.434-.82.577-1.146a14.04 14.04 0 00.215-.516l.011-.03.004-.008a.511.511 0 01.026-.042.242.242 0 01.058-.066l-.128-.214m-4.085 7.39l-.007.001m.007 0h-.007m4.092-7.39c.117-.071.276-.05.276-.05l-.465.278s.074-.16.189-.229zm-4.092 7.39h0m0 0h0m0 0h0m0 0h0m0 0h0m0 0h0m0 0h0m0 0h0m0 0h-.015l-.053.001c-.05 0-.122-.002-.216-.01a4.222 4.222 0 01-.779-.14c-.639-.177-1.478-.559-2.267-1.38-.876-.911-1.71-2.284-2.33-3.445A31.652 31.652 0 014.1 8.528l-.013-.031-.002-.003a.447.447 0 01-.021-.115.843.843 0 01.214-.046h.005l2-.014h.001a.778.778 0 01.061.017c.053.017.106.04.143.067l.148-.201m4.116 7.333L6.31 8.069s.191.032.328.133m0 0c.113.083.176.238.176.238l-.232.092h0v.003h0m.056-.333l-.148.201a.29.29 0 01.065.079.51.51 0 01.023.042l.005.01h0m0 0l.003.008.012.03a10.977 10.977 0 00.207.48c.138.305.333.709.556 1.094l-.778-1.611zm8.302-.055h0zm2.89-.092l-.002-.001.001.001zm-5.652 6.855l-.25.004h0l.25-.004z" fill="#fff" stroke="#fff" stroke-width=".5"/></svg>